<svg id="Capa_1" enable-background="new 0 0 512 512" height="512" viewBox="0 0 512 512" width="512" xmlns="http://www.w3.org/2000/svg"><g><g><g><g><g><g><g><circle cx="256" cy="256" fill="#64e1dc" r="256"/></g></g></g></g></g></g><path d="m512 256c0-2.886-.048-5.76-.143-8.623l-179.95-179.95-146.144 377.147 67.411 67.411c.941.01 1.883.016 2.827.016 141.384-.001 255.999-114.616 255.999-256.001z" fill="#00c8c8"/><g><path d="m180.093 67.426-28.346 98.198 34.016 278.95h140.474l34.016-278.95-28.346-98.198z" fill="#707789"/></g><g><path d="m360.253 165.624-28.346-98.198h-75.786v377.148h70.116z" fill="#555a66"/></g><g><g><g><path d="m338.022 242.081h16.889v162.649h-16.889z" fill="#f24500"/></g></g><g><g><path d="m346.482 242.081h8.429v162.649h-8.429z" fill="#d13400"/></g></g><g><g><path d="m265.141 314.961h162.65v16.889h-162.65z" fill="#f24500"/></g></g><g><g><path d="m346.482 314.961h81.309v16.889h-81.309z" fill="#d13400"/></g></g><g><g><path d="m265.142 314.961h162.649v16.889h-162.649z" fill="#f24500" transform="matrix(.707 -.707 .707 .707 -127.204 339.72)"/></g></g><g><g><path d="m398 259.929-51.518 51.519v23.884l63.461-63.461z" fill="#d13400"/></g></g><g><g><path d="m338.022 242.081h16.889v162.649h-16.889z" fill="#f24500" transform="matrix(.707 -.707 .707 .707 -127.205 339.711)"/></g></g><g><g><path d="m409.943 374.94-63.461-63.461v23.885l51.518 51.518z" fill="#d13400"/></g></g><g><g><circle cx="346.466" cy="323.406" fill="#fe6a16" r="61.597"/></g></g><g><g><path d="m408.063 323.406c0-34.014-27.57-61.588-61.582-61.597v123.194c34.013-.009 61.582-27.584 61.582-61.597z" fill="#f24500"/></g></g><g><g><circle cx="327.367" cy="294.873" fill="#f24500" r="9.159"/></g></g><g><g><circle cx="380.303" cy="332.509" fill="#d13400" r="11.575"/></g></g><g><g><circle cx="372.486" cy="290.275" fill="#d13400" r="7.818"/></g></g><g><g><circle cx="325.672" cy="351.617" fill="#f24500" r="14.308"/></g></g></g><g><path d="m256 95.505c-28.372 0-51.371 23-51.371 51.371v23.167c0 8.623 5.808 15.889 13.725 18.101v11.132c0 4.846 3.929 8.775 8.775 8.775h57.741c4.846 0 8.775-3.929 8.775-8.775v-11.132c7.917-2.212 13.725-9.478 13.725-18.101v-23.167c.001-28.371-22.998-51.371-51.37-51.371zm-18.22 75.722c-9.208 3.408-19.191-.635-22.298-9.03s1.838-17.964 11.046-21.372 19.191.635 22.298 9.031c3.107 8.395-1.838 17.963-11.046 21.371zm58.738-9.03c-3.107 8.395-13.09 12.438-22.298 9.03-9.207-3.408-14.153-12.976-11.046-21.371s13.091-12.438 22.298-9.031 14.153 12.977 11.046 21.372z" fill="#f2f6fc"/></g><g><path d="m256.121 95.508v112.543h28.75c4.846 0 8.775-3.929 8.775-8.775v-11.132c7.917-2.212 13.725-9.478 13.725-18.101v-23.167c0-28.331-22.935-51.303-51.25-51.368zm40.397 66.689c-3.107 8.395-13.09 12.438-22.298 9.03s-14.153-12.976-11.046-21.371c3.107-8.396 13.091-12.438 22.298-9.031 9.208 3.408 14.153 12.977 11.046 21.372z" fill="#dce1eb"/></g></g></svg>